/* XPM */
static char *result[] = {
/* columns rows colors chars-per-pixel */
"32 32 8 1 ",
"  c #010100",
". c #010101",
"X c #010000",
"o c #000100",
"O c #010001",
"+ c #000101",
"@ c black",
"# c #000001",
/* pixels */
"    .  XX.       o        O    o",
"       o     o+     @ XX        ",
".   X  o      X X       . .  O  ",
"X        X     o   X   o.       ",
". X   o  o    o              o  ",
"Xo      X   .      o      X     ",
"   o    .X     X        .      @",
"    . o X@ . XoX            o  X",
" .  XX  . Xo o    +         .   ",
"    o X    o      .       .     ",
" o  .                   O. X o  ",
". .            X    o  o        ",
"..     X.  .    X        X.     ",
" X   XX    .         o         #",
"   X  o.        . X X.     ..o  ",
" X X               o X   X @  . ",
"  oo. .      o XX      o    X XX",
"  X  o          .          X   X",
" X  o    Xo     .     o  o      ",
"    @ X  X     X    .X.o    X . ",
"   oXo  X         .  oX  X X .  ",
"  o     X  . .  Xo X      .     ",
"    X           +              O",
" . o     Xo     o            + X",
" .oX  O       oo .     oX    .  ",
" o.               XXo     .     ",
"  @        . ..      XXo   X    ",
". X     X      o o      o     @ ",
"       .         o      X.      ",
" .  X. O  o  .   X  .  XX       ",
"  X.           .   . .     o    ",
"  X   o  XX  o   X .o     .  o  "
};
