/* XPM */
static char *result[] = {
/* columns rows colors chars-per-pixel */
"32 32 50 1 ",
"  c #1C181E",
". c #1D181E",
"X c #1C191E",
"o c #1D191E",
"O c #1C181F",
"+ c #1D181F",
"@ c #1C191F",
"# c #1D191F",
"$ c #422E52",
"% c #432E52",
"& c #422F52",
"* c #432F52",
"= c #422E53",
"- c #432E53",
"; c #422F53",
": c #432F53",
"> c #5C426E",
", c #5D426E",
"< c #5C436E",
"1 c #5D436E",
"2 c #5C426F",
"3 c #5D426F",
"4 c #5C436F",
"5 c #5D436F",
"6 c #5F5E7A",
"7 c #5E5F7A",
"8 c #5F5F7A",
"9 c #5E5E7B",
"0 c #5F5E7B",
"q c #5E5F7B",
"w c #5F5F7B",
"e c #AE0000",
"r c #B472B0",
"t c #B572B0",
"y c #B473B0",
"u c #B573B0",
"i c #B472B1",
"p c #B572B1",
"a c #B473B1",
"s c #B573B1",
"d c #7684A2",
"f c #7784A2",
"g c #7685A2",
"h c #7785A2",
"j c #7684A3",
"k c #7784A3",
"l c #7785A3",
"z c #FFF8D6",
"x c #FEF8D7",
"c c None",
/* pixels */
"cccccccccccccccccccccccccccccccc",
"cccccccccccccccccccccccccccccccc",
"cccccccccccccccccccccccccccccccc",
"cccccccccccccccccccccccccccccccc",
"cccccccccccccccccccccccccccccccc",
"cccccccccccccccccccccccccccccccc",
"cccccccccccccccccccccccccccccccc",
"cccccccccccccccccccccccccccccccc",
"cccccccccccc#cccccc#cccccccccccc",
"ccccccccccc.k.ccccol.ccccccccccc",
"ccccccccccc.t:oooo-u.ccccccccccc",
"ccccccccccc+ak:kf:8i ccccccccccc",
"ccccccccccc:..0dfko@;ccccccccccc",
"ccccccccccc:#e.ddoe+=ccccccccccc",
"cccccccc&:%&o:pfhq:+-&:&cccccccc",
"ccccccc:ryi-..x ozo+%uit:ccccccc",
"cccccc*iw%:.02.<<+<<+$;8s&cccccc",
"ccccc-s$12*.q74,144qo$5<*y-ccccc",
"ccccc*q&4&-.kq6<>7qh.-:4:q*ccccc",
"cccc-pw4--.c kdggdkOco-:49p;cccc",
"ccc%*p=*:Occ.kj++ffocc.:-;i&=ccc",
"cc-rt84;.ccc.4Xcc >@ccc.:*7pt:cc",
"ccc:pq2+cccc+<.cc+4.ccccX%qt%ccc",
"ccc;9;q.cccccocccc.ccccc.0-0;ccc",
"ccc:w:* cccccccccccccccc.:*w:ccc",
"cc;;w*XccccccccccccccccccX20;-cc",
"cc.48;occccccccccccccccccO3w4 cc",
"cc <4-Occcccccccccccccccc+=-<occ",
"ccc.;.ccccccccccccccccccccX2.ccc",
"cccc. cccccccccccccccccccc+ cccc",
"cccccccccccccccccccccccccccccccc",
"cccccccccccccccccccccccccccccccc"
};
