/* XPM */
static char *result[] = {
/* columns rows colors chars-per-pixel */
"32 32 51 1 ",
"  c #1C181E",
". c #1D181E",
"X c #1C191E",
"o c #1D191E",
"O c #1C181F",
"+ c #1D181F",
"@ c #1C191F",
"# c #1D191F",
"$ c #422E52",
"% c #432E52",
"& c #422F52",
"* c #432F52",
"= c #422E53",
"- c #432E53",
"; c #422F53",
": c #432F53",
"> c #5C426E",
", c #5D426E",
"< c #5C436E",
"1 c #5D436E",
"2 c #5C426F",
"3 c #5D426F",
"4 c #5C436F",
"5 c #5D436F",
"6 c #5E5E7A",
"7 c #5F5E7A",
"8 c #5E5F7A",
"9 c #5F5F7A",
"0 c #5E5E7B",
"q c #5F5E7B",
"w c #5E5F7B",
"e c #5F5F7B",
"r c #AF0000",
"t c #AE0101",
"y c #B472B0",
"u c #B572B0",
"i c #B573B0",
"p c #B472B1",
"a c #B572B1",
"s c #B473B1",
"d c #B573B1",
"f c #7684A2",
"g c #7784A2",
"h c #7685A2",
"j c #7785A2",
"k c #7784A3",
"l c #7685A3",
"z c #7785A3",
"x c #FEF8D7",
"c c #FFF8D7",
"v c None",
/* pixels */
"vvvvvvvvvvvvvvvvvvvvvvvvvvvvvvvv",
"vvvvvvvvvvvvvvvvvvvvvvvvvvvvvvvv",
"vvvvvvvvvvvvvvvvvvvvvvvvvvvvvvvv",
"vvvvvvvvvvvvvvvvvvvvvvvvvvvvvvvv",
"vvvvvvvvvvvvvvvvvvvvvvvvvvvvvvvv",
"vvvvvvvvvvvvvvvvvvvvvvvvvvvvvvvv",
"vvvvvvvvvvvvvvvvvvvvvvvvvvvvvvvv",
"vvvvvvvvvvvvvvvvvvvvvvvvvvvvvvvv",
"vvvvvvvvvvvvvvvvvvvvvvvvvvvvvvvv",
"vvvvvvvvvvvvvvvvvvvvvvvvvvvvvvvv",
"vvvvvvvvvvvv vvvvvvOvvvvvvvvvvvv",
"vvvvvvvvvvvok.vvvv#l vvvvvvvvvvv",
"vvvvvvvvvvvoy=@OXX-s#vvvvvvvvvvv",
"vvvvv*;$vvv% .6ghl#@$vvv;*:vvvvv",
"vvvv&=sa%;**.togl.r@===&ip--vvvv",
"vvv-$iw$ysd%+;uhzw$+&usu:7a&=vvv",
"vv:sus6$q$-%O@xO#c..$$&q-qyua&vv",
"vvv;a7$5,2*+7>O><#<<.$1<4:ep=vvv",
"vvv=w94;<&*o6q53>>48+-:4%:7w*vvv",
"vvv-q;>$=:..kee5>00j.@---;-0$vvv",
"vv$=6:0 :Ovv.hf  fh@vvo:Xq-7&:vv",
"vvO>2=ooOvvvX4@vvX2+vvvo+.2&1 vv",
"vvv@%$ovvvvvv.vvvvovvvvvvO%4#vvv",
"vvvv#O.vvvvvvvvvvvvvvvvvv.  vvvv",
"vvvvv+vvvvvvvvvvvvvvvvvvvv+vvvvv",
"vvvvvvvvvvvvvvvvvvvvvvvvvvvvvvvv",
"vvvvvvvvvvvvvvvvvvvvvvvvvvvvvvvv",
"vvvvvvvvvvvvvvvvvvvvvvvvvvvvvvvv",
"vvvvvvvvvvvvvvvvvvvvvvvvvvvvvvvv",
"vvvvvvvvvvvvvvvvvvvvvvvvvvvvvvvv",
"vvvvvvvvvvvvvvvvvvvvvvvvvvvvvvvv",
"vvvvvvvvvvvvvvvvvvvvvvvvvvvvvvvv"
};
