/* XPM */
static char *result[] = {
/* columns rows colors chars-per-pixel */
"32 32 50 1 ",
"  c #1C181E",
". c #1D181E",
"X c #1C191E",
"o c #1D191E",
"O c #1C181F",
"+ c #1D181F",
"@ c #1C191F",
"# c #1D191F",
"$ c #422E52",
"% c #432E52",
"& c #422F52",
"* c #432F52",
"= c #422E53",
"- c #432E53",
"; c #422F53",
": c #432F53",
"> c #5C426E",
", c #5D426E",
"< c #5C436E",
"1 c #5D436E",
"2 c #5C426F",
"3 c #5C436F",
"4 c #5D436F",
"5 c #5E5E7A",
"6 c #5F5E7A",
"7 c #5E5F7A",
"8 c #5F5F7A",
"9 c #5E5E7B",
"0 c #5F5E7B",
"q c #5E5F7B",
"w c #5F5F7B",
"e c #AE0000",
"r c #AE0101",
"t c #B472B0",
"y c #B572B0",
"u c #B473B0",
"i c #B573B0",
"p c #B472B1",
"a c #B572B1",
"s c #B573B1",
"d c #7684A2",
"f c #7784A2",
"g c #7685A2",
"h c #7785A2",
"j c #7684A3",
"k c #7784A3",
"l c #7785A3",
"z c #FFF8D6",
"x c #FEF8D7",
"c c None",
/* pixels */
"cccccccccccccccccccccccccccccccc",
"cccccccccccccccccccccccccccccccc",
"cccccccccccccccccccccccccccccccc",
"cccccccccccccccccccccccccccccccc",
"cccccccccccccccccccccccccccccccc",
"cccccccccccccccccccccccccccccccc",
"cccccccccccccccccccccccccccccccc",
"cccccccccccccccccccccccccccccccc",
"cccccccccccccccccccccccccccccccc",
"cccccccccccc@cccccc+cccccccccccc",
"ccccccccccc.j.cccc#l.ccccccccccc",
"ccccccccccc t-.+oo-i#ccccccccccc",
"ccccccccccc:..9dhj#O:ccccccccccc",
"ccccccccccc:#r+dgoe.=ccccccccccc",
"ccccc*&=$=*$#-afl9:+-&-&$&$ccccc",
"cccc&=uptua%O+x #zX+%isysp-=cccc",
"ccc;$iq$w%: 92.<3#<<+$;0*qa&-ccc",
"cc;uas7$12*.qw3,,33w#$4<*wtsa:cc",
"ccc*p7=33&*.kq6<2q9h#-:33;6y-ccc",
"ccc=883$=-.c gfoojg@c#--=*w9$ccc",
"ccc%6=3&:Occ+4@cc+>+cco:**$6&ccc",
"cc$=5;0 .ccccOcccc.cccco 0%w;;cc",
"ccO13%o.cccccccccccccccc+o2&4 cc",
"cccO%-occccccccccccccccccX=2#ccc",
"cccc#O+cccccccccccccccccc+O cccc",
"cccccoccccccccccccccccccccOccccc",
"cccccccccccccccccccccccccccccccc",
"cccccccccccccccccccccccccccccccc",
"cccccccccccccccccccccccccccccccc",
"cccccccccccccccccccccccccccccccc",
"cccccccccccccccccccccccccccccccc",
"cccccccccccccccccccccccccccccccc"
};
