/* XPM */
static char *result[] = {
/* columns rows colors chars-per-pixel */
"32 32 52 1 ",
"  c #1C181E",
". c #1D181E",
"X c #1C191E",
"o c #1D191E",
"O c #1C181F",
"+ c #1D181F",
"@ c #1C191F",
"# c #1D191F",
"$ c #422E52",
"% c #432E52",
"& c #422F52",
"* c #432F52",
"= c #422E53",
"- c #432E53",
"; c #422F53",
": c #432F53",
"> c #5C426E",
", c #5D426E",
"< c #5C436E",
"1 c #5D436E",
"2 c #5C426F",
"3 c #5D426F",
"4 c #5C436F",
"5 c #5D436F",
"6 c #5E5E7A",
"7 c #5F5E7A",
"8 c #5E5F7A",
"9 c #5F5F7A",
"0 c #5E5E7B",
"q c #5F5E7B",
"w c #5E5F7B",
"e c #5F5F7B",
"r c #AE0000",
"t c #AE0100",
"y c #B472B0",
"u c #B572B0",
"i c #B473B0",
"p c #B573B0",
"a c #B472B1",
"s c #B572B1",
"d c #B473B1",
"f c #B573B1",
"g c #7684A2",
"h c #7784A2",
"j c #7685A2",
"k c #7785A2",
"l c #7684A3",
"z c #7784A3",
"x c #7785A3",
"c c #FFF8D6",
"v c #FEF8D7",
"b c None",
/* pixels */
"bbbbbbbbbbbbbbbbbbbbbbbbbbbbbbbb",
"bbbbbbbbbbbbbbbbbbbbbbbbbbbbbbbb",
"bbbbbbbbbbbbbbbbbbbbbbbbbbbbbbbb",
"bbbbbbbbbbbbbbbbbbbbbbbbbbbbbbbb",
"bbbbbbbbbbbbbbbbbbbbbbbbbbbbbbbb",
"bbbbbbbbbbbbbbbbbbbbbbbbbbbbbbbb",
"bbbbbbbbbbbbbbbbbbbbbbbbbbbbbbbb",
"bbbbbbbbbbbbbbbbbbbbbbbbbbbbbbbb",
"bbbbbbbbbbbbbbbbbbbbbbbbbbbbbbbb",
"bbbbbbbbbbbb@bbbbbb+bbbbbbbbbbbb",
"bbbbbbbbbbb.l.bbbb#x.bbbbbbbbbbb",
"bbbbbbbbbbb.y-.#oo-pobbbbbbbbbbb",
"bbbbbbbbbbb:..0ghz#@;bbbbbbbbbbb",
"bbbbbbbbbbb:#t.gjor.=bbbbbbbbbbb",
"bbbbbb&=$-%&o-shxw:+-&:&&&bbbbbb",
"bbbbb&dayis-.+v #cX+%pfufa$bbbbb",
"bbbbb;w%e%:.02.<4+<<+$;e*w-bbbbb",
"bbbb;p8&1>*.w94,,44w#$5<*wa;bbbb",
"bbb%-d=<4&%.zw7<2wwko-:44;y%-bbb",
"bb$ad84$--.b lgjggzObo--=*6su:bb",
"bbb;p94&:Obb.zl++hkobbo:**9u-bbb",
"bbb=e-q .bbbX>obb#4+bbb. q=e&bbb",
"bbb-w;-@bbbbb.bbbbobbbbb.;%e;bbb",
"bb;-e:oobbbbbbbbbbbbbbbb+X38&*bb",
"bb+28-Xbbbbbbbbbbbbbbbbbb@202Obb",
"bb@31:Obbbbbbbbbbbbbbbbbb+=$<obb",
"bbb@;.bbbbbbbbbbbbbbbbbbbbO2obbb",
"bbbb+obbbbbbbbbbbbbbbbbbbbO bbbb",
"bbbbbbbbbbbbbbbbbbbbbbbbbbbbbbbb",
"bbbbbbbbbbbbbbbbbbbbbbbbbbbbbbbb",
"bbbbbbbbbbbbbbbbbbbbbbbbbbbbbbbb",
"bbbbbbbbbbbbbbbbbbbbbbbbbbbbbbbb"
};
