/* XPM */
static char *_ed709a2573b485ffcca9de25a978c7d1GieNXdyXChWy2Im[] = {
/* columns rows colors chars-per-pixel */
"15 15 30 1 ",
"  c None",
". c #3E2630",
"X c #3F2630",
"o c #3E2730",
"O c #3F2730",
"+ c #3E2631",
"@ c #3F2631",
"# c #3E2731",
"$ c #3F2731",
"% c #F67622",
"& c #F77622",
"* c #F67722",
"= c #F77722",
"- c #F67623",
"; c #F77623",
": c #F67723",
"> c #F77723",
", c #FEAE34",
"< c #FFAE34",
"1 c #FEAF34",
"2 c #FFAF34",
"3 c #FEAE35",
"4 c #FFAE35",
"5 c #FEAF35",
"6 c #FEE660",
"7 c #FFE660",
"8 c #FFE760",
"9 c #FFE661",
"0 c #FFE761",
"q c #FEFFFF",
/* pixels */
"               ",
"               ",
"     +++++     ",
"    $88288+    ",
"   +q333,83.   ",
"  +88333,>>>+  ",
"  +822233=>>$  ",
"  +822333>>=@  ",
"  +833,32:>>+  ",
"  +83,12::>>+  ",
"  @83>>>>%>>+  ",
"   +,>>:%>>.   ",
"    @>>>>%+    ",
"     ++$..     ",
"               "
};
