/* XPM */
static char *_20767f5e8b64577b3090c7dfe722366TKnXKiktvaNYOpL8[] = {
/* columns rows colors chars-per-pixel */
"15 15 33 1 ",
"  c None",
". c #3E2630",
"X c #3F2630",
"o c #3E2730",
"O c #3F2730",
"+ c #3E2631",
"@ c #3F2631",
"# c #3E2731",
"$ c #3F2731",
"% c #F67622",
"& c #F77622",
"* c #F67722",
"= c #F77722",
"- c #F77623",
"; c #F67723",
": c #F77723",
"> c #FEAE34",
", c #FFAE34",
"< c #FEAF34",
"1 c #FFAF34",
"2 c #FEAE35",
"3 c #FFAE35",
"4 c #FEAF35",
"5 c #FFAF35",
"6 c #FEE660",
"7 c #FFE660",
"8 c #FEE760",
"9 c #FFE760",
"0 c #FEE661",
"q c #FFE661",
"w c #FEE761",
"e c #FFE761",
"r c #FEFFFF",
/* pixels */
"               ",
"               ",
"     +++++     ",
"    +9999e+    ",
"   +r999999+   ",
"  +99994ee4*+  ",
"  +99944,<4:$  ",
"  +99944,,,&+  ",
"  +99444,4,:$  ",
"  +99,,4,44*@  ",
"  +97,4444,*@  ",
"   +,,4*,4*+   ",
"    +::**&+    ",
"     ++$+@     ",
"               "
};
