/* XPM */
static char *_257444f81534481ef234a5cc01347a3L2Npc4J4PprVZO02[] = {
/* columns rows colors chars-per-pixel */
"15 15 31 1 ",
"  c None",
". c #3E2630",
"X c #3F2630",
"o c #3E2730",
"O c #3F2730",
"+ c #3E2631",
"@ c #3F2631",
"# c #3E2731",
"$ c #3F2731",
"% c #F77622",
"& c #F67722",
"* c #F77722",
"= c #F67623",
"- c #F77623",
"; c #F67723",
": c #FEAE34",
"> c #FFAE34",
", c #FEAF34",
"< c #FFAF34",
"1 c #FEAE35",
"2 c #FFAE35",
"3 c #FEAF35",
"4 c #FFAF35",
"5 c #FEE660",
"6 c #FEE760",
"7 c #FFE760",
"8 c #FEE661",
"9 c #FFE661",
"0 c #FEE761",
"q c #FFE761",
"w c #FEFFFF",
/* pixels */
"               ",
"               ",
"     $@@$@     ",
"    $66767o    ",
"   @w662662o   ",
"  @662222,;&@  ",
"  @66,222,--o  ",
"  @66,2222--$  ",
"  @672,,,4-;o  ",
"  @672,,,4--@  ",
"  @67,,%,,--@  ",
"   @2&*%;;-o   ",
"    @&;;--@    ",
"     o$oo@     ",
"               "
};
