/* XPM */
static char *result[] = {
/* columns rows colors chars-per-pixel */
"32 32 92 1 ",
"  c #3FBCFF",
". c #42AEFF",
"X c #42AFFF",
"o c #43B0FF",
"O c #44B4FF",
"+ c #45B5FF",
"@ c #40B8FF",
"# c #40B9FF",
"$ c #41B9FF",
"% c #42B9FF",
"& c #40BAFF",
"* c #41BAFF",
"= c #46B8FF",
"- c #40BCFF",
"; c #41BCFF",
": c #41BDFF",
"> c #42BFFF",
", c #48BCFF",
"< c #4ABFFF",
"1 c #40C0FF",
"2 c #41C0FF",
"3 c #41C1FF",
"4 c #43C2FF",
"5 c #45C0FF",
"6 c #45C3FF",
"7 c #42C7FF",
"8 c #46C4FF",
"9 c #47C8FF",
"0 c #45CBFF",
"q c #47CAFF",
"w c #44CEFF",
"e c #45CEFF",
"r c #49CAFF",
"t c #49CBFF",
"y c #4FCFFF",
"u c #4CD3FF",
"i c #4DD3FF",
"p c #4FD3FF",
"a c #4AD5FF",
"s c #4DD6FF",
"d c #4FDCFF",
"f c #4FDEFF",
"g c #50D2FF",
"h c #51D3FF",
"j c #56D2FF",
"k c #55D4FF",
"l c #5AD6FF",
"z c #54DAFF",
"x c #55DEFF",
"c c #56DEFF",
"v c #5EDCFF",
"b c #62DEFF",
"n c #4FE1FF",
"m c #50E1FF",
"M c #53E2FF",
"N c #55E0FF",
"B c #57E1FF",
"V c #55E2FF",
"C c #52E4FF",
"Z c #54E4FF",
"A c #56E5FF",
"S c #56E7FF",
"D c #58E4FF",
"F c #58E8FF",
"G c #5CE9FF",
"H c #59EEFF",
"J c #5EF7FF",
"K c #5FF9FF",
"L c #61E7FF",
"P c #62E7FF",
"I c #66E6FF",
"U c #63EFFF",
"Y c #65EFFF",
"T c #7BEDFF",
"R c #6DF4FF",
"E c #63F8FF",
"W c #64FDFF",
"Q c #67FEFF",
"! c #72FBFF",
"~ c #7DFFFF",
"^ c #84EEFF",
"/ c #86F9FF",
"( c #8BFDFF",
") c #8CFCFF",
"_ c #95F8FF",
"` c #99FDFF",
"' c #9AFFFF",
"] c #9EFCFF",
"[ c #AAFFFF",
"{ c #ABFFFF",
"} c #B3FCFF",
"| c None",
/* pixels */
"||||||||||||||||||||||||||||||||",
"||||||||||||||||||||||||||||||||",
"||||||||||||||||||||||||||||||||",
"||||||||||||||||||||||||||||||||",
"||||||||||||||||||||||||||||||||",
"||||||||||||||||||||||||||||||||",
"||||||||||||||||||||||||||||||||",
"||||||||||||||||||||||||||||||||",
"||||||||||||||enA/_Tb|||||||||||",
"||||||||||||||70qP({]l||||||||||",
"|||||||||||||||1->M~)j||||||||||",
"|||||||||||||||3|@9EU=||||||||||",
"|||||||||||||||||#%Nc.||||||||||",
"|||||||||||||||||*6p,|||||||||||",
"|||||||||||||||||&dF+|||||||||||",
"|||||||||||||||||*sVO|||||||||||",
"||||||||||||||||;*8Sy|||||||||||",
"|||||||||||||||||$5Zxo||||||||||",
"|||||||||||||||||#rHg|||||||||||",
"|||||||||||||||||&iWh|||||||||||",
"|||||||||||||||||#tJz|||||||||||",
"|||||||||||||||3:&uKBX||||||||||",
"|||||||||||||||2:4CQY<||||||||||",
"|||||||||||||||2 a![`k||||||||||",
"||||||||||||||wfGR'}^|||||||||||",
"|||||||||||||||mDLIv||||||||||||",
"||||||||||||||||||||||||||||||||",
"||||||||||||||||||||||||||||||||",
"||||||||||||||||||||||||||||||||",
"||||||||||||||||||||||||||||||||",
"||||||||||||||||||||||||||||||||",
"||||||||||||||||||||||||||||||||"
};
