/* XPM */
static char *result[] = {
/* columns rows colors chars-per-pixel */
"32 32 139 2 ",
"   c #4083FF",
".  c #4084FF",
"X  c #4184FF",
"o  c #4185FF",
"O  c #4086FF",
"+  c #4187FF",
"@  c #4188FF",
"#  c #4289FF",
"$  c #428AFF",
"%  c #448DFF",
"&  c #448EFF",
"*  c #4692FF",
"=  c #4997FF",
"-  c #4A99FF",
";  c #4B9DFF",
":  c #4DA1FF",
">  c #4FA4FF",
",  c #46ADFF",
"<  c #50A7FF",
"1  c #52ABFF",
"2  c #4AB4FF",
"3  c #49B6FF",
"4  c #4DB9FF",
"5  c #4EBEFF",
"6  c #57B4FF",
"7  c #57B5FF",
"8  c #58B2FF",
"9  c #58B7FF",
"0  c #5FBCFF",
"q  c #5FC4FF",
"w  c #56CFFF",
"e  c #58CBFF",
"r  c #5FCCFF",
"t  c #5BD6FF",
"y  c #5DDCFF",
"u  c #68C6FF",
"i  c #6DC7FF",
"p  c #61C9FF",
"a  c #62C9FF",
"s  c #64C8FF",
"d  c #61CDFF",
"f  c #64CEFF",
"g  c #6FCDFF",
"h  c #75CFFF",
"j  c #65D3FF",
"k  c #6AD2FF",
"l  c #65DAFF",
"z  c #64DBFF",
"x  c #66DEFF",
"c  c #69DDFF",
"v  c #76DBFF",
"b  c #68E2FF",
"n  c #6EE6FF",
"m  c #6FE7FF",
"M  c #6FE8FF",
"N  c #6DECFF",
"B  c #72E2FF",
"V  c #7AE4FF",
"C  c #70E8FF",
"Z  c #70EBFF",
"A  c #76E8FF",
"S  c #71EFFF",
"D  c #6BF0FF",
"F  c #6FF2FF",
"G  c #6EF3FF",
"H  c #68F6FF",
"J  c #6BFCFF",
"K  c #70F4FF",
"L  c #78F2FF",
"P  c #7AF3FF",
"I  c #78F7FF",
"U  c #70F9FF",
"Y  c #73F9FF",
"T  c #71FAFF",
"R  c #74FAFF",
"E  c #71FEFF",
"W  c #75FDFF",
"Q  c #75FFFF",
"!  c #76FFFF",
"~  c #7BFDFF",
"^  c #78FFFF",
"/  c #7AFEFF",
"(  c #7AFFFF",
")  c #7BFFFF",
"_  c #7CFFFF",
"`  c #7DFFFF",
"'  c #7EFFFF",
"]  c #7FFFFF",
"[  c #8ADEFF",
"{  c #83E2FF",
"}  c #8BE0FF",
"|  c #8FEBFF",
" . c #96E6FF",
".. c #99ECFF",
"X. c #83F2FF",
"o. c #84F4FF",
"O. c #85F9FF",
"+. c #81FFFF",
"@. c #85FEFF",
"#. c #84FFFF",
"$. c #85FFFF",
"%. c #89FDFF",
"&. c #88FEFF",
"*. c #8BFFFF",
"=. c #8CFFFF",
"-. c #8DFFFF",
";. c #8FFFFF",
":. c #92F5FF",
">. c #91FFFF",
",. c #95FFFF",
"<. c #96FFFF",
"1. c #9FFFFF",
"2. c #A2FFFF",
"3. c #A3FFFF",
"4. c #ABFAFF",
"5. c #B4F2FF",
"6. c #B4F8FF",
"7. c #B3FFFF",
"8. c #B4FFFF",
"9. c #B6FFFF",
"0. c #B9F9FF",
"q. c #BBF8FF",
"w. c #B8FFFF",
"e. c #BDFFFF",
"r. c #C0FFFF",
"t. c #C2FEFF",
"y. c #C3FFFF",
"u. c #CDFAFF",
"i. c #CDFFFF",
"p. c #D1FFFF",
"a. c #D6FFFF",
"s. c #DAFFFF",
"d. c #DFFFFF",
"f. c #E1FFFF",
"g. c #E5FFFF",
"h. c #E8FFFF",
"j. c #ECFFFF",
"k. c #EFFFFF",
"l. c None",
/* pixels */
"l.l.l.l.l.l.l.l.l.l.l.l.l.l.l.l.l.l.l.l.l.l.l.l.l.l.l.l.l.l.l.l.",
"l.l.l.l.l.l.l.l.l.l.l.l.l.l.l.l.l.l.l.l.l.l.l.l.l.l.l.l.l.l.l.l.",
"l.l.l.l.l.l.l.l.l.l.l.l.l.l.l.l.l.l.l.l.l.l.l.l.l.l.l.l.l.l.l.l.",
"l.l.l.l.l.l.l.l.l.l.l.l.l.l.l.l.l.l.l.l.l.l.l.l.l.l.l.l.l.l.l.l.",
"l.l.l.l.l.l.l.l.l.l.l.l.l.l.l.l.l.l.l.l.l.l.l.l.l.l.l.l.l.l.l.l.",
"l.l.l.l.l.l.l.l.l.l.l.l.l.l.l.l.l.l.l.l.l.l.l.l.l.l.l.l.l.l.l.l.",
"l.l.l.l.l.l.l.l.l.l.l.l.l.l.l.l.l.l.l.l.l.l.l.l.l.l.l.l.l.l.l.l.",
"l.l.l.l.l.l.l.l.l.l.l.l.l.l.l.0 l.l.l.l.l.l.l.l.l.l.l.l.l.l.l.l.",
"l.l.l.l.l.l.l.l.l.l.l.l.s } 5.q.h l.l.l.l.l.l.l.l.l.l.l.l.l.l.l.",
"l.l.l.l.l.l.l.l.l.l.l.v 0.k.k.t.g # l.l.l.l.l.l.l.l.l.l.l.l.l.l.",
"l.l.l.l.l.l.l.l.l.l.| i.f.a.w.X.>   l.l.l.l.l.l.l.l.l.l.l.l.l.l.",
"l.l.l.l.l.l.l.l.l.V p.f.7.1.<.A - l.l.l.l.l.l.l.l.l.l.l.l.l.l.l.",
"l.l.l.l.l.l.l.l.2 o.9.3.;.-.@.p % l.l.l.l.l.l.l.l.l.l.l.l.l.l.l.",
"l.l.l.l.l.l.l.l.5 Y / ` ] #.P 1 + o l.l.l.l.l.l.l.l.l.l.l.l.l.l.",
"l.l.l.l.l.l.l.l.w J H W ) ( C < + o l.l.l.l.l.l.l.l.l.l.l.l.l.l.",
"l.l.l.l.l.l.l.l.y Q U ~ _ K j ; O o l.l.l.l.l.l.l.l.l.l.l.l.l.l.",
"l.l.l.l.l.l.l.3 L ,.=.+.R z d : O X l.l.l.l.l.l.l.l.l.l.l.l.l.l.",
"l.l.l.l.l.l.l.5 O.2.;._ G x c 6 @ o l.l.l.l.l.l.l.l.l.l.l.l.l.l.",
"l.l.l.l.l.l.l., Z $.` ! T N n 7 @ o l.l.l.l.l.l.l.l.l.l.l.l.l.l.",
"l.l.l.l.l.l.l.l.t ^ E ! D b m 9 @ o l.l.l.l.l.l.l.l.l.l.l.l.l.l.",
"l.l.l.l.l.l.l.l.e &.=.' F l M q $ o l.l.l.l.l.l.l.l.l.l.l.l.l.l.",
"l.l.l.l.l.l.l.l.4 X.e.8.%.S I f & X l.l.l.l.l.l.l.l.l.l.l.l.l.l.",
"l.l.l.l.l.l.l.l.l.r 4.g.r.>.*.B = . l.l.l.l.l.l.l.l.l.l.l.l.l.l.",
"l.l.l.l.l.l.l.l.l.l.k 6.h.d.y.:.8 o l.l.l.l.l.l.l.l.l.l.l.l.l.l.",
"l.l.l.l.l.l.l.l.l.l.l.a ..u.j.s.{ * l.l.l.l.l.l.l.l.l.l.l.l.l.l.",
"l.l.l.l.l.l.l.l.l.l.l.l.l.u [  .i l.l.l.l.l.l.l.l.l.l.l.l.l.l.l.",
"l.l.l.l.l.l.l.l.l.l.l.l.l.l.l.l.l.l.l.l.l.l.l.l.l.l.l.l.l.l.l.l.",
"l.l.l.l.l.l.l.l.l.l.l.l.l.l.l.l.l.l.l.l.l.l.l.l.l.l.l.l.l.l.l.l.",
"l.l.l.l.l.l.l.l.l.l.l.l.l.l.l.l.l.l.l.l.l.l.l.l.l.l.l.l.l.l.l.l.",
"l.l.l.l.l.l.l.l.l.l.l.l.l.l.l.l.l.l.l.l.l.l.l.l.l.l.l.l.l.l.l.l.",
"l.l.l.l.l.l.l.l.l.l.l.l.l.l.l.l.l.l.l.l.l.l.l.l.l.l.l.l.l.l.l.l.",
"l.l.l.l.l.l.l.l.l.l.l.l.l.l.l.l.l.l.l.l.l.l.l.l.l.l.l.l.l.l.l.l."
};
