/* XPM */
static char *result[] = {
/* columns rows colors chars-per-pixel */
"32 32 75 1 ",
"  c #4183FF",
". c #4184FF",
"X c #4185FF",
"o c #4086FF",
"O c #4186FF",
"+ c #4187FF",
"@ c #4286FF",
"# c #4287FF",
"$ c #4288FF",
"% c #4289FF",
"& c #428AFF",
"* c #438CFF",
"= c #458CFF",
"- c #468DFF",
"; c #448EFF",
": c #4790FF",
"> c #4691FF",
", c #4493FF",
"< c #4793FF",
"1 c #4594FF",
"2 c #4796FF",
"3 c #4996FF",
"4 c #4998FF",
"5 c #489BFF",
"6 c #4A9AFF",
"7 c #4B9CFF",
"8 c #4C9EFF",
"9 c #4C9FFF",
"0 c #4DA1FF",
"q c #4EA2FF",
"w c #4EA3FF",
"e c #4FA3FF",
"r c #4EA5FF",
"t c #4FA6FF",
"y c #50A1FF",
"u c #52AAFF",
"i c #52ACFF",
"p c #53ADFF",
"a c #56B4FF",
"s c #5AB3FF",
"d c #5AB5FF",
"f c #5AB6FF",
"g c #5CB7FF",
"h c #5ABDFF",
"j c #5BBFFF",
"k c #60BCFF",
"l c #5DC1FF",
"z c #5DC3FF",
"x c #5EC4FF",
"c c #66CBFF",
"v c #65CFFF",
"b c #6ACCFF",
"n c #68D5FF",
"m c #6FD7FF",
"M c #69DBFF",
"N c #6FDBFF",
"B c #6ADCFF",
"V c #71D6FF",
"C c #74D7FF",
"Z c #73DAFF",
"A c #79D8FF",
"S c #6EE2FF",
"D c #70E3FF",
"F c #70E4FF",
"G c #78F1FF",
"H c #84E9FF",
"J c #8EEDFF",
"K c #82FFFF",
"L c #9AF3FF",
"P c #90FAFF",
"I c #96F9FF",
"U c #95FFFF",
"Y c #A5FEFF",
"T c #AEFEFF",
"R c None",
/* pixels */
"RRRRRRRRRRRRRRRRRRRRRRRRRRRRRRRR",
"RRRRRRRRRRRRRRRRRRRRRRRRRRRRRRRR",
"RRRRRRRRRRRRRRRRRRRRRRRRRRRRRRRR",
"RRRRRRRRRRRRRRRRRRRRRRRRRRRRRRRR",
"RRRRRRRRRRRRRRRRRRRRRRRRRRRRRRRR",
"RRRRRRRRRRRRRRRRRRRRRRRRRRRRRRRR",
"RRRRRRRRRRRRRRRRRRRRRRRRRRRRRRRR",
"RRRRRRRRRRRRRRRRRRRRRRRRRRRRRRRR",
"RRRRRRRRRRRRRRRRRRRRRRRRRRRRRRRR",
"RRRRRRRRRRRfs-RRRRRRRRRRRRRRRRRR",
"RRRRRRRRRRAIZ:RRRRRRRRRRRRRRRRRR",
"RRRRRRRRRbTLd=RRRRRRRRRRRRRRRRRR",
"RRRRRRRR,mPc<@RRRRRRRRRRRRRRRRRR",
"RRRRRRRR2jhw%XRRRRRRRRRRRRRRRRRR",
"RRRRRRRR9a9;&ORRRRRRRRRRRRRRRRRR",
"RRRRRRRRrju73#RRRRRRRRRRRRRRRRRR",
"RRRRRRR1vGBq*ORRRRRRRRRRRRRRRRRR",
"RRRRRRR5DKS8oXRRRRRRRRRRRRRRRRRR",
"RRRRRRRRzMl4+XRRRRRRRRRRRRRRRRRR",
"RRRRRRRRtxp6$XRRRRRRRRRRRRRRRRRR",
"RRRRRRRRrFn0ORRRRRRRRRRRRRRRRRRR",
"RRRRRRRR5NUC> RRRRRRRRRRRRRRRRRR",
"RRRRRRRRRiJYk.RRRRRRRRRRRRRRRRRR",
"RRRRRRRRRRgHVRRRRRRRRRRRRRRRRRRR",
"RRRRRRRRRRReyRRRRRRRRRRRRRRRRRRR",
"RRRRRRRRRRRRRRRRRRRRRRRRRRRRRRRR",
"RRRRRRRRRRRRRRRRRRRRRRRRRRRRRRRR",
"RRRRRRRRRRRRRRRRRRRRRRRRRRRRRRRR",
"RRRRRRRRRRRRRRRRRRRRRRRRRRRRRRRR",
"RRRRRRRRRRRRRRRRRRRRRRRRRRRRRRRR",
"RRRRRRRRRRRRRRRRRRRRRRRRRRRRRRRR",
"RRRRRRRRRRRRRRRRRRRRRRRRRRRRRRRR"
};
