/* XPM */
static char *result[] = {
/* columns rows colors chars-per-pixel */
"32 32 171 2 ",
"   c #42A1FF",
".  c #45A8FF",
"X  c #46AAFF",
"o  c #47AAFF",
"O  c #48ADFF",
"+  c #41B5FF",
"@  c #42B4FF",
"#  c #41B6FF",
"$  c #40B7FF",
"%  c #41B7FF",
"&  c #43B6FF",
"*  c #43B7FF",
"=  c #4AB0FF",
"-  c #4BB1FF",
";  c #4BB3FF",
":  c #41B8FF",
">  c #41B9FF",
",  c #41BAFF",
"<  c #41BBFF",
"1  c #42BAFF",
"2  c #40BCFF",
"3  c #41BCFF",
"4  c #41BDFF",
"5  c #42BCFF",
"6  c #40BEFF",
"7  c #41BFFF",
"8  c #45BDFF",
"9  c #52BDFF",
"0  c #42C0FF",
"q  c #41C4FF",
"w  c #42C4FF",
"e  c #49C5FF",
"r  c #4DCDFF",
"t  c #56C3FF",
"y  c #59C2FF",
"u  c #5ECCFF",
"i  c #49D2FF",
"p  c #4AD3FF",
"a  c #4ED1FF",
"s  c #4AD6FF",
"d  c #4DD7FF",
"f  c #4ED7FF",
"g  c #4FD7FF",
"h  c #4AD8FF",
"j  c #51D4FF",
"k  c #53DDFF",
"l  c #51DFFF",
"z  c #53DEFF",
"x  c #67D3FF",
"c  c #62D7FF",
"v  c #6AD4FF",
"b  c #6DD6FF",
"n  c #63D9FF",
"m  c #61DAFF",
"M  c #70DFFF",
"N  c #56E1FF",
"B  c #54E2FF",
"V  c #55E5FF",
"C  c #57E4FF",
"Z  c #57E5FF",
"A  c #56E6FF",
"S  c #57E7FF",
"D  c #55EAFF",
"F  c #56ECFF",
"G  c #57EDFF",
"H  c #5BEDFF",
"J  c #5CECFF",
"K  c #5DEFFF",
"L  c #5BF0FF",
"P  c #5EF5FF",
"I  c #5FF6FF",
"U  c #64E6FF",
"Y  c #68E2FF",
"T  c #68E3FF",
"R  c #61EFFF",
"E  c #73ECFF",
"W  c #7AEAFF",
"Q  c #7BEBFF",
"!  c #78EEFF",
"~  c #60F3FF",
"^  c #60F4FF",
"/  c #60F7FF",
"(  c #62F7FF",
")  c #6AF3FF",
"_  c #6DF1FF",
"`  c #6DF6FF",
"'  c #63F8FF",
"]  c #65FBFF",
"[  c #67FCFF",
"{  c #67FFFF",
"}  c #68FAFF",
"|  c #6EFCFF",
" . c #6FFDFF",
".. c #6EFEFF",
"X. c #7BF2FF",
"o. c #7DF0FF",
"O. c #7CF4FF",
"+. c #73FAFF",
"@. c #72FBFF",
"#. c #70FDFF",
"$. c #73FDFF",
"%. c #71FFFF",
"&. c #73FFFF",
"*. c #74FDFF",
"=. c #77FFFF",
"-. c #79FDFF",
";. c #79FFFF",
":. c #7AFEFF",
">. c #7DFEFF",
",. c #7DFFFF",
"<. c #83E3FF",
"1. c #85E3FF",
"2. c #8EE7FF",
"3. c #8EE9FF",
"4. c #82F4FF",
"5. c #8DF6FF",
"6. c #80FDFF",
"7. c #87FFFF",
"8. c #8AFFFF",
"9. c #8CFFFF",
"0. c #8FFFFF",
"q. c #99F5FF",
"w. c #95F9FF",
"e. c #92FFFF",
"r. c #94FFFF",
"t. c #96FFFF",
"y. c #97FFFF",
"u. c #9BFAFF",
"i. c #98FFFF",
"p. c #9AFFFF",
"a. c #9DFFFF",
"s. c #9FFFFF",
"d. c #A0F3FF",
"f. c #ADF4FF",
"g. c #A1FEFF",
"h. c #A0FFFF",
"j. c #A1FFFF",
"k. c #A4FFFF",
"l. c #A5FFFF",
"z. c #A8FFFF",
"x. c #ACFFFF",
"c. c #ADFFFF",
"v. c #AFFFFF",
"b. c #B2F5FF",
"n. c #B4F5FF",
"m. c #B5F7FF",
"M. c #B2FFFF",
"N. c #BBFFFF",
"B. c #C4F9FF",
"V. c #C1FCFF",
"C. c #C1FFFF",
"Z. c #C2FFFF",
"A. c #C7FFFF",
"S. c #C8FFFF",
"D. c #CAFFFF",
"F. c #CBFFFF",
"G. c #D2FFFF",
"H. c #D4FFFF",
"J. c #D5FFFF",
"K. c #DAFEFF",
"L. c LightCyan",
"P. c #E6FFFF",
"I. c #EEFFFF",
"U. c #F1FFFF",
"Y. c #F2FFFF",
"T. c #F4FFFF",
"R. c #F5FFFF",
"E. c #FCFFFF",
"W. c #FDFFFF",
"Q. c white",
"!. c None",
/* pixels */
"!.!.!.!.!.!.!.!.!.!.!.!.!.!.!.!.!.!.!.!.!.!.!.!.!.!.!.!.!.!.!.!.",
"!.!.!.!.!.!.!.!.!.!.!.!.!.!.!.!.!.!.!.!.!.!.!.!.!.!.!.!.!.!.!.!.",
"!.!.!.!.!.!.!.!.!.!.!.!.!.!.!.!.!.!.!.!.!.!.!.!.!.!.!.!.!.!.!.!.",
"!.!.!.!.!.!.!.!.!.!.!.!.!.!.!.!.!.!.!.!.!.!.!.!.!.!.!.!.!.!.!.!.",
"!.!.!.!.!.!.!.!.!.!.!.!.!.!.!.!.!.!.!.!.!.!.!.!.!.!.!.!.!.!.!.!.",
"!.!.!.!.!.!.!.!.!.!.!.!.!.!.!.!.!.!.!.!.!.!.!.!.!.!.!.!.!.!.!.!.",
"!.!.!.!.!.!.!.!.!.!.!.!.!.!.!.!.!.!.!.!.!.!.!.!.!.!.!.!.!.!.!.!.",
"!.!.!.!.!.!.!.!.!.!.!.!.!.!.!.m M 3.<.u !.!.!.!.!.!.!.!.!.!.!.!.",
"!.!.!.!.!.!.!.!.!.!.!.!.!.T q.V.K.T.I.B.1.!.!.!.!.!.!.!.!.!.!.!.",
"!.!.!.!.!.!.!.!.!.!.!.!._ g.N.A.J.U.W.Q.H.b !.!.!.!.!.!.!.!.!.!.",
"!.!.!.!.!.!.!.!.!.!.!.F ^ :.7.9.0.z.F.L.S.v !.!.!.!.!.!.!.!.!.!.",
"!.!.!.!.!.!.!.!.!.!.h p i G ..,.#.*.r.M.w.9 !.!.!.!.!.!.!.!.!.!.",
"!.!.!.!.!.!.!.!.!.!.q 2 1 f [ %.] } 7.i.X.= !.!.!.!.!.!.!.!.!.!.",
"!.!.!.!.!.!.!.!.!.!.!.4 % g / ( I | e.y.Y   !.!.!.!.!.!.!.!.!.!.",
"!.!.!.!.!.!.!.!.!.!.!.3 : e z S H +.k.s.c !.!.!.!.!.!.!.!.!.!.!.",
"!.!.!.!.!.!.!.!.!.!.!.3 , * a k K >.l.s.n !.!.!.!.!.!.!.!.!.!.!.",
"!.!.!.!.!.!.!.!.!.!.6 5 : @ r J ( ;.t.p.E X !.!.!.!.!.!.!.!.!.!.",
"!.!.!.!.!.!.!.!.!.!.7 < + & C { ' $.0.a.O.- !.!.!.!.!.!.!.!.!.!.",
"!.!.!.!.!.!.!.!.!.!.!.3 # & B P N ` y.l.! o !.!.!.!.!.!.!.!.!.!.",
"!.!.!.!.!.!.!.!.!.!.!.4 > & V L j ) s.v.Q . !.!.!.!.!.!.!.!.!.!.",
"!.!.!.!.!.!.!.!.!.!.!.< # & Z [ ~ -.j.c.o.O !.!.!.!.!.!.!.!.!.!.",
"!.!.!.!.!.!.!.!.!.!.w 0 $ 8 R =.&.8.l.x.4.; !.!.!.!.!.!.!.!.!.!.",
"!.!.!.!.!.!.!.!.!.!.s D d l  .7.8.h.Z.A.u.t !.!.!.!.!.!.!.!.!.!.",
"!.!.!.!.!.!.!.!.!.!.!.A @.6.e.s.z.D.Y.E.G.x !.!.!.!.!.!.!.!.!.!.",
"!.!.!.!.!.!.!.!.!.!.!.!.U 5.C.P.U.E.Q.R.n.y !.!.!.!.!.!.!.!.!.!.",
"!.!.!.!.!.!.!.!.!.!.!.!.!.!.W d.b.m.f.2.!.!.!.!.!.!.!.!.!.!.!.!.",
"!.!.!.!.!.!.!.!.!.!.!.!.!.!.!.!.!.!.!.!.!.!.!.!.!.!.!.!.!.!.!.!.",
"!.!.!.!.!.!.!.!.!.!.!.!.!.!.!.!.!.!.!.!.!.!.!.!.!.!.!.!.!.!.!.!.",
"!.!.!.!.!.!.!.!.!.!.!.!.!.!.!.!.!.!.!.!.!.!.!.!.!.!.!.!.!.!.!.!.",
"!.!.!.!.!.!.!.!.!.!.!.!.!.!.!.!.!.!.!.!.!.!.!.!.!.!.!.!.!.!.!.!.",
"!.!.!.!.!.!.!.!.!.!.!.!.!.!.!.!.!.!.!.!.!.!.!.!.!.!.!.!.!.!.!.!.",
"!.!.!.!.!.!.!.!.!.!.!.!.!.!.!.!.!.!.!.!.!.!.!.!.!.!.!.!.!.!.!.!."
};
