/* XPM */
static char *_3e2924b498b4ffd964df0d332ff8a8a9ha6RyoXTtIxwKh5[] = {
/* columns rows colors chars-per-pixel */
"15 15 69 1 ",
"  c None",
". c black",
"X c #010000",
"o c #000100",
"O c #010100",
"+ c #000001",
"@ c #010001",
"# c #000101",
"$ c #010101",
"% c #0C1018",
"& c #21100C",
"* c #21110C",
"= c #20100D",
"- c #21100D",
"; c #1A1D31",
": c #1C1D30",
"> c #1F1D32",
", c #1E1E32",
"< c #1C1E34",
"1 c #191C39",
"2 c #211F34",
"3 c #192032",
"4 c #192333",
"5 c #192134",
"6 c #182135",
"7 c #1E2038",
"8 c #1C2438",
"9 c #1C223C",
"0 c #1C203E",
"q c #1A2C38",
"w c #202035",
"e c #402616",
"r c #412616",
"t c #412716",
"y c #402617",
"u c #412617",
"i c #402717",
"p c #412717",
"a c #573A22",
"s c #563B22",
"d c #573B22",
"f c #563A23",
"g c #573A23",
"h c #563B23",
"j c #573B23",
"k c #AC7A5C",
"l c #AD7A5C",
"z c #AC7B5C",
"x c #AC7A5D",
"c c #AD7A5D",
"v c #AC7B5D",
"b c #AD7B5D",
"n c #1C428A",
"m c #1D428B",
"M c #2C64B4",
"N c #2C65B4",
"B c #2D65B4",
"V c #2C64B5",
"C c #2C65B5",
"Z c #2D65B5",
"A c #797F96",
"S c #787E97",
"D c #787F97",
"F c #C1AC8E",
"G c #C0AD8E",
"H c #C1AD8E",
"J c #C0AC8F",
"K c #C1AC8F",
"L c #C0AD8F",
/* pixels */
"               ",
"    .....      ",
"   ..gpjp..    ",
"  ...ggjjjj.   ",
" .papaahpihs   ",
" .pepajibbvt.  ",
" .paciJc-K-$.  ",
" .paccKH-K-.   ",
"  $iccLHLHH.   ",
"  .$iivccc..   ",
"   $ptjDAA.    ",
"  $JKhjNNNb.   ",
"  w.mNNmNN.9   ",
" q,.ta..ij%05  ",
" 9w61:612::67  "
};
