/* XPM */
static char *_307115093c445868f81711a51db72a1qMrZ8EcpZpQCQOwl[] = {
/* columns rows colors chars-per-pixel */
"32 32 23 1 ",
"  c None",
". c #242326",
"X c #242327",
"o c #3F689E",
"O c #3F689F",
"+ c #3F699F",
"@ c #4BA2E0",
"# c #4AA2E1",
"$ c #4BA2E1",
"% c #4BA3E1",
"& c #5AE0FC",
"* c #5AE0FD",
"= c #5AE1FD",
"- c #9EEEFE",
"; c #9FEEFE",
": c #9FEFFE",
"> c #9EEEFF",
", c #9FEEFF",
"< c #9FEFFF",
"1 c #FEFFFE",
"2 c #FFFEFF",
"3 c #FEFFFF",
"4 c white",
/* pixels */
"                                ",
"                                ",
"                                ",
"                                ",
"                                ",
"                                ",
"                                ",
"                                ",
"                                ",
"                **              ",
"              ***@              ",
"            &*44***@            ",
"           **444<<**@           ",
"           *444><<<*@           ",
"          *<X4<<><X<@+          ",
"          *<<<@@><<<@O          ",
"          **<<<<>;;@@O          ",
"          @*****&&@@O+          ",
"           @@@@$@@@O+           ",
"                                ",
"                                ",
"                                ",
"                                ",
"                                ",
"                                ",
"                                ",
"                                ",
"                                ",
"                                ",
"                                ",
"                                ",
"                                "
};
