/* XPM */
static char *_96e5006806a4ea4b693919eefa94b678rG8FWV2kVaBEnx8[] = {
/* columns rows colors chars-per-pixel */
"32 32 22 1 ",
"  c None",
". c #242326",
"X c #3E689F",
"o c #3F689F",
"O c #3F699F",
"+ c #4AA2E0",
"@ c #4BA2E0",
"# c #4AA2E1",
"$ c #4BA2E1",
"% c #4BA3E1",
"& c #5AE0FC",
"* c #5AE0FD",
"= c #5BE0FD",
"- c #5AE1FD",
"; c #9FEEFE",
": c #9EEEFF",
"> c #9FEEFF",
", c #9EEFFF",
"< c #9FEFFF",
"1 c #FFFFFE",
"2 c #FFFEFF",
"3 c white",
/* pixels */
"                                ",
"                                ",
"                                ",
"                                ",
"                                ",
"                                ",
"                                ",
"                                ",
"                                ",
"               ****             ",
"             ****%X             ",
"            **22**&%            ",
"           =.222:<.&X           ",
"          *=22%%<<:<%X          ",
"          *:22:<>;<<%O          ",
"          *::<::>;;;%O          ",
"          **<:::>>>%OO          ",
"           *&&&&&$%XO           ",
"            $%%%%$Xo            ",
"                                ",
"                                ",
"                                ",
"                                ",
"                                ",
"                                ",
"                                ",
"                                ",
"                                ",
"                                ",
"                                ",
"                                ",
"                                "
};
