/* XPM */
static char *d529b7df22d34168dc23f64b2451449cci4VtXoOvV9oIJ8L[] = {
/* columns rows colors chars-per-pixel */
"15 15 68 1 ",
"  c None",
". c black",
"X c #010000",
"o c #000100",
"O c #010100",
"+ c #000001",
"@ c #010001",
"# c #000101",
"$ c #010101",
"% c #0C1018",
"& c #0C1118",
"* c #20100C",
"= c #21110C",
"- c #21100D",
"; c #1A1C31",
": c #1C1D31",
"> c #1F1D33",
", c #1E1E34",
"< c #191C39",
"1 c #211F34",
"2 c #192032",
"3 c #192333",
"4 c #192134",
"5 c #182135",
"6 c #1F2038",
"7 c #1C2638",
"8 c #1C203E",
"9 c #1C223E",
"0 c #1A2C38",
"q c #202036",
"w c #402616",
"e c #412616",
"r c #412716",
"t c #402617",
"y c #412617",
"u c #402717",
"i c #412717",
"p c #563A22",
"a c #573A22",
"s c #563B22",
"d c #573B22",
"f c #563A23",
"g c #573A23",
"h c #563B23",
"j c #573B23",
"k c #1C2040",
"l c #AD7A5C",
"z c #AC7B5C",
"x c #AD7B5C",
"c c #AC7A5D",
"v c #AD7A5D",
"b c #AC7B5D",
"n c #AD7B5D",
"m c #1C438A",
"M c #1D428B",
"N c #2D65B4",
"B c #2C64B5",
"V c #2C65B5",
"C c #2D65B5",
"Z c #787E96",
"A c #797F96",
"S c #C1AC8E",
"D c #C0AD8E",
"F c #C1AD8E",
"G c #C0AC8F",
"H c #C1AC8F",
"J c #C0AD8F",
"K c #C1AD8F",
/* pixels */
"               ",
"    .....      ",
"   ..jiji..    ",
"  ...jjjjjj.   ",
" .ijifiirKdj   ",
" .iiiiDGnnnr.  ",
" .ifliGv-H-..  ",
" .ijllGG-H-.   ",
"  .invFFDFH.   ",
"  .HrifAZZ..   ",
"  .HFdjCCCn.   ",
"  ..MCCMCC$k   ",
"  q.if..rd&k   ",
" 01.rf..ud&8,  ",
" 7q4<:4<:3;3q  "
};
