/* XPM */
static char *dab5319e52e94f35b9043646574571c5pqWdOCyfnfdVRVQF[] = {
/* columns rows colors chars-per-pixel */
"32 32 34 1 ",
"  c None",
". c #242326",
"X c #242327",
"o c #3F689E",
"O c #3F699E",
"+ c #3E689F",
"@ c #3F689F",
"# c #3E699F",
"$ c #3F699F",
"% c #4AA2E0",
"& c #4BA2E0",
"* c #4AA2E1",
"= c #4BA2E1",
"- c #4AA3E1",
"; c #4BA3E1",
": c #5AE0FC",
"> c #5BE0FC",
", c #5AE1FC",
"< c #5BE1FC",
"1 c #5AE0FD",
"2 c #5BE0FD",
"3 c #5AE1FD",
"4 c #5BE1FD",
"5 c #9EEEFE",
"6 c #9FEEFE",
"7 c #9EEFFE",
"8 c #9FEFFE",
"9 c #9EEEFF",
"0 c #9FEEFF",
"q c #9FEFFF",
"w c #FFFFFE",
"e c #FFFEFF",
"r c #FEFFFF",
"t c white",
/* pixels */
"                                ",
"                                ",
"                                ",
"                                ",
"                                ",
"                                ",
"                                ",
"                                ",
"                                ",
"               ::::             ",
"             222:;o             ",
"            22ww::2;            ",
"           ::wwwqqq2@           ",
"          22.wwqqq.7;@          ",
"          :qww;=q07q;o          ",
"          :q777760q7;o          ",
"          ::7777666%o@          ",
"           :22222%%@o           ",
"            %%;;;;@@            ",
"                                ",
"                                ",
"                                ",
"                                ",
"                                ",
"                                ",
"                                ",
"                                ",
"                                ",
"                                ",
"                                ",
"                                ",
"                                "
};
