/* XPM */
static char *_eb200ddd9234d66f529973622d91079tOJ2m7mZBbXNXnLc[] = {
/* columns rows colors chars-per-pixel */
"32 32 22 1 ",
"  c None",
". c #242326",
"X c #3F689E",
"o c #3E689F",
"O c #3F689F",
"+ c #4BA2E0",
"@ c #4AA2E1",
"# c #4BA2E1",
"$ c #4BA3E1",
"% c #5AE0FC",
"& c #5BE0FC",
"* c #5AE1FC",
"= c #5AE0FD",
"- c #5BE0FD",
"; c #5AE1FD",
": c #9EEEFE",
"> c #9FEEFE",
", c #9FEEFF",
"< c #9FEFFF",
"1 c #FFFEFE",
"2 c #FEFFFF",
"3 c white",
/* pixels */
"                                ",
"                                ",
"                                ",
"                                ",
"                                ",
"                                ",
"                                ",
"                                ",
"                                ",
"                                ",
"               ====             ",
"             ====$O             ",
"            ==11=&=$            ",
"           *=111,,,=O           ",
"          ==.11>,,.,$O          ",
"          =>11$$,,,,$O          ",
"          =>>>>>,<,>$X          ",
"          ==>>>>,,>$OO          ",
"           =====%$$OO           ",
"            $$$$$$OO            ",
"                                ",
"                                ",
"                                ",
"                                ",
"                                ",
"                                ",
"                                ",
"                                ",
"                                ",
"                                ",
"                                ",
"                                "
};
