/* XPM */
static char *_415d774dd0847bcbd5d9747d6a76091GOpNbBL8Oxnd39Bu[] = {
/* columns rows colors chars-per-pixel */
"32 32 22 1 ",
"  c None",
". c #242326",
"X c #3F689F",
"o c #3F699F",
"O c #4BA2E0",
"+ c #4AA2E1",
"@ c #4BA2E1",
"# c #4BA3E1",
"$ c #5AE0FC",
"% c #5AE0FD",
"& c #5AE1FD",
"* c #5BE1FD",
"= c #9EEEFE",
"- c #9FEEFE",
"; c #9EEEFF",
": c #9FEEFF",
"> c #9FEFFF",
", c #FFFEFE",
"< c #FEFFFE",
"1 c #FFFEFF",
"2 c #FEFFFF",
"3 c white",
/* pixels */
"                                ",
"                                ",
"                                ",
"                                ",
"                                ",
"                                ",
"                                ",
"                                ",
"                                ",
"                                ",
"                %%              ",
"              %$%@              ",
"            %%33%%%@            ",
"           %%333::%%@           ",
"           %333::>>%@           ",
"          %:.3::::.:@o          ",
"          %:::@@::::@o          ",
"          %%:>:>>::@@X          ",
"          @%%$%%%$@+oX          ",
"           @@@@@@++oo           ",
"                                ",
"                                ",
"                                ",
"                                ",
"                                ",
"                                ",
"                                ",
"                                ",
"                                ",
"                                ",
"                                ",
"                                "
};
