/* XPM */
static char *_0e385d5f6cb4ebbf0eea0546cb20d098SjMDKBGhwIGQsV6[] = {
/* columns rows colors chars-per-pixel */
"15 15 70 1 ",
"  c None",
". c black",
"X c #010000",
"o c #000100",
"O c #010100",
"+ c #000001",
"@ c #010001",
"# c #000101",
"$ c #010101",
"% c #0C1018",
"& c #21110C",
"* c #20100D",
"= c #21100D",
"- c #1A1C31",
"; c #1C1D30",
": c #1F1D33",
"> c #1E1E32",
", c #1C1E34",
"< c #191C39",
"1 c #191D39",
"2 c #211F34",
"3 c #192032",
"4 c #192332",
"5 c #182134",
"6 c #192135",
"7 c #1C2138",
"8 c #1E2038",
"9 c #1C223A",
"0 c #1C203C",
"q c #1A2938",
"w c #202034",
"e c #402616",
"r c #412616",
"t c #402716",
"y c #412716",
"u c #402617",
"i c #412617",
"p c #402717",
"a c #412717",
"s c #563A22",
"d c #573A22",
"f c #563B22",
"g c #573B22",
"h c #563A23",
"j c #573A23",
"k c #563B23",
"l c #573B23",
"z c #AC7A5C",
"x c #AD7A5C",
"c c #AC7B5C",
"v c #AC7A5D",
"b c #AD7A5D",
"n c #AC7B5D",
"m c #AD7B5D",
"M c #1C438A",
"N c #1D428B",
"B c #2C64B4",
"V c #2C64B5",
"C c #2C65B5",
"Z c #2D65B5",
"A c #787E96",
"S c #787F96",
"D c #787E97",
"F c #C1AC8E",
"G c #C0AD8E",
"H c #C1AD8E",
"J c #C0AC8F",
"K c #C1AC8F",
"L c #C0AD8F",
"P c #C1AD8F",
/* pixels */
"               ",
"  $$$$$$$      ",
"  $$ddeke$$    ",
" $ekkkkkkkk$   ",
"$ykdekddyykk$  ",
"$edeedjinbbee$ ",
"$ekkbikb*F&$y$ ",
"$eykbbeF*F&$$  ",
" $ttbbGFGFF$   ",
"  $$eenbbn$$   ",
"   $yekDDS$    ",
"  $JFkkCBCb$   ",
"  2$MVBNBB$7   ",
" q>$ek$$yk%0,  ",
" 726<>5<>3-47  "
};
