/* XPM */
static char *aac48943dfe1426c90e2f64d2f1ccd59HBjF1RYOZVfrxGER[] = {
/* columns rows colors chars-per-pixel */
"32 32 23 1 ",
"  c None",
". c #242326",
"X c #3F689E",
"o c #3E689F",
"O c #3F689F",
"+ c #3E699F",
"@ c #3F699F",
"# c #4BA2E0",
"$ c #4AA2E1",
"% c #4BA2E1",
"& c #4AA3E1",
"* c #4BA3E1",
"= c #5AE0FC",
"- c #5BE0FC",
"; c #5AE0FD",
": c #5AE1FD",
"> c #9FEFFE",
", c #9EEEFF",
"< c #9FEEFF",
"1 c #9EEFFF",
"2 c #9FEFFF",
"3 c #FFFFFE",
"4 c white",
/* pixels */
"                                ",
"                                ",
"                                ",
"                                ",
"                                ",
"                                ",
"                                ",
"                                ",
"                                ",
"               ====             ",
"             ====*@             ",
"            ==44===&            ",
"           ==44422<=@           ",
"          ==.44<22.<#@          ",
"          =<44##><<<#@          ",
"          =<<<<<<><>#@          ",
"          ==<<><<><#oo          ",
"           ======##@@           ",
"            ###&##@@            ",
"                                ",
"                                ",
"                                ",
"                                ",
"                                ",
"                                ",
"                                ",
"                                ",
"                                ",
"                                ",
"                                ",
"                                ",
"                                "
};
