/* XPM */
static char *result[] = {
/* columns rows colors chars-per-pixel */
"15 15 68 1 ",
"  c #010000",
". c #000100",
"X c #010101",
"o c #181E32",
"O c #181F32",
"+ c #1B1E32",
"@ c #1C1C32",
"# c #1E1C32",
"$ c #1C1E32",
"% c #1E1E32",
"& c #181C34",
"* c #1B1C34",
"= c #181E34",
"- c #1A1E35",
"; c #1A1C36",
": c #1A1C37",
"> c #1C1C34",
", c #1E1E34",
"< c #1C1C37",
"1 c #181C3A",
"2 c #1A1E3D",
"3 c #1A2132",
"4 c #182232",
"5 c #182432",
"6 c #1A2134",
"7 c #182336",
"8 c #1C225C",
"9 c #1D225C",
"0 c #1C235C",
"q c #1D235C",
"w c #1C225D",
"e c #1D225D",
"r c #1C235D",
"t c #1D235D",
"y c #9F2E46",
"u c #9E2F46",
"i c #33408A",
"p c #32418A",
"a c #33418A",
"s c #32408B",
"d c #33408B",
"f c #32418B",
"g c #33418B",
"h c #425A9E",
"j c #435A9E",
"k c #425B9E",
"l c #425A9F",
"z c #435A9F",
"x c #425B9F",
"c c #435B9F",
"v c #4C8AB2",
"b c #4D8AB2",
"n c #4C8BB2",
"m c #4D8BB2",
"M c #4C8AB3",
"N c #4D8AB3",
"B c #4C8BB3",
"V c #4D8BB3",
"C c #64B0B8",
"Z c #65B0B8",
"A c #64B1B8",
"S c #65B1B8",
"D c #64B0B9",
"F c #65B0B9",
"G c #64B1B9",
"H c #65B1B9",
"J c #FEFEFF",
"K c None",
/* pixels */
"KKKKKKKKKKKKKKK",
"KKKKKKKKKKKKKKK",
"KKK09e8weweKKKK",
"KKrhBbmbNBVe8KK",
"KKeBDFZZDSFFrKK",
"KKtVZDJXSA.HxrK",
"KrxGFS .GD.HmtK",
"KejHFSHHHHHHmtK",
"KwlHFHHSFACfNqK",
"KexCSsfigdaCMqK",
"@ekNASyuapDvkt&",
",3tkVvMNbnMxjr<",
"+o1jhzkkxcxht%:",
"K4;$O2#5=*6->7K",
"KKKKKKKKKKKKKKK"
};
