/* XPM */
static char *result[] = {
/* columns rows colors chars-per-pixel */
"15 15 63 1 ",
"  c black",
". c #000100",
"X c #010101",
"o c #181E32",
"O c #1A1E32",
"+ c #1A1F32",
"@ c #1C1C32",
"# c #1D1C32",
"$ c #1C1E32",
"% c #1E1E32",
"& c #181C34",
"* c #1A1C34",
"= c #1A1C35",
"- c #181E34",
"; c #1A1E34",
": c #1A1F34",
"> c #1A1C36",
", c #1C1C34",
"< c #1D1E34",
"1 c #1C1C36",
"2 c #181C39",
"3 c #1A1E3B",
"4 c #182232",
"5 c #182332",
"6 c #182136",
"7 c #1C225C",
"8 c #1D225C",
"9 c #1C235C",
"0 c #1D235C",
"q c #1D225D",
"w c #1C235D",
"e c #1D235D",
"r c #9F2E46",
"t c #9E2F46",
"y c #32408A",
"u c #33408A",
"i c #32418A",
"p c #33418A",
"a c #32408B",
"s c #32418B",
"d c #33418B",
"f c #435A9E",
"g c #425B9E",
"h c #435B9E",
"j c #425A9F",
"k c #425B9F",
"l c #4C8AB2",
"z c #4D8AB2",
"x c #4D8BB2",
"c c #4C8AB3",
"v c #4D8AB3",
"b c #4C8BB3",
"n c #4D8BB3",
"m c #64B0B8",
"M c #65B0B8",
"N c #64B1B8",
"B c #65B1B8",
"V c #64B0B9",
"C c #65B0B9",
"Z c #64B1B9",
"A c #65B1B9",
"S c #FEFEFF",
"D c None",
/* pixels */
"DDDDDDDDDDDDDDD",
"DDDDDDDDDDDDDDD",
"DDDw90qq8qqDDDD",
"DDDfcxbznnceDDD",
"DD9xlmZBZNNf7DD",
"DDqbVMMMVNACwDD",
"DDenBmSXAN.BkwD",
"DwgZCA  ZV.BxeD",
"DwjZyiZBCNmsv8D",
"DqkmBydpdauVv8D",
"@qgcNBrtdpVlge&",
"<+0hncvnvxbkfw1",
"Oo2fgfggkkjje%=",
"D4>$o3#5-*:;,6D",
"DDDDDDDDDDDDDDD"
};
