/* XPM */
static char *result[] = {
/* columns rows colors chars-per-pixel */
"15 15 68 1 ",
"  c #010000",
". c #000100",
"X c #010100",
"o c #010001",
"O c #000101",
"+ c #181F32",
"@ c #1F1C32",
"# c #1C1E32",
"$ c #1E1E32",
"% c #181C35",
"& c #181E34",
"* c #1E1C34",
"= c #1E1E34",
"- c #1A1C39",
"; c #1A1E38",
": c #181C3B",
"> c #1A1C3B",
", c #1C1C3B",
"< c #211C32",
"1 c #182132",
"2 c #182232",
"3 c #1A2432",
"4 c #182632",
"5 c #1A2334",
"6 c #182536",
"7 c #1A1E40",
"8 c #1C225C",
"9 c #1D225C",
"0 c #1C235C",
"q c #1D235C",
"w c #1C225D",
"e c #1D225D",
"r c #1C235D",
"t c #1D235D",
"y c #9E2E46",
"u c #9E2F46",
"i c #33408A",
"p c #32418A",
"a c #33418A",
"s c #32408B",
"d c #33408B",
"f c #32418B",
"g c #33418B",
"h c #425A9E",
"j c #435A9E",
"k c #425B9E",
"l c #435B9E",
"z c #425A9F",
"x c #425B9F",
"c c #435B9F",
"v c #4C8AB2",
"b c #4D8AB2",
"n c #4C8BB2",
"m c #4D8BB2",
"M c #4C8AB3",
"N c #4D8AB3",
"B c #4C8BB3",
"V c #4D8BB3",
"C c #64B0B8",
"Z c #65B0B8",
"A c #64B1B8",
"S c #65B1B8",
"D c #64B0B9",
"F c #65B0B9",
"G c #64B1B9",
"H c #65B1B9",
"J c #FEFFFE",
"K c None",
/* pixels */
"KKKKKKKKKKKKKKK",
"KKKrt9q8ttwKKKK",
"KK0cVmNBMnB98KK",
"KKejbACAZSCGeKK",
"KKqnSDJXSC HqKK",
"KK8bHFXOA.oScrK",
"KwjAZFFDBFFGmtK",
"KrcHCASBBSAAntK",
"K0jADHHZFACHM9K",
"K9zSCsfigdaDMqK",
"@qxNDHyuapGvlt%",
"=3tkNvNgamBkhr,",
"$+:hhjkhxxzzr$>",
"K2-#17<4&*5;*6K",
"KKKKKKKKKKKKKKK"
};
