/* XPM */
static char *_1f6b59076fb456cb93b72ac104e0c16ELzdGzEGlHtqKslK[] = {
/* columns rows colors chars-per-pixel */
"15 15 52 1 ",
"  c None",
". c #20100C",
"X c #21100C",
"o c #20110C",
"O c #21110C",
"+ c #20100D",
"@ c #21100D",
"# c #20110D",
"$ c #21110D",
"% c #1E1E32",
"& c #1A1E34",
"* c #181E37",
"= c #1F1E34",
"- c #1A1C38",
"; c #181E38",
": c #1C1C39",
"> c #181C3C",
", c #1A1E3C",
"< c #231E32",
"1 c #211E34",
"2 c #241C34",
"3 c #1E2032",
"4 c #182432",
"5 c #182732",
"6 c #1A2632",
"7 c #1C2234",
"8 c #1E2036",
"9 c #1A2634",
"0 c #182736",
"q c #503624",
"w c #513624",
"e c #503724",
"r c #503625",
"t c #513625",
"y c #503725",
"u c #513725",
"i c #745238",
"p c #755238",
"a c #745338",
"s c #755338",
"d c #745239",
"f c #755239",
"g c #745339",
"h c #755339",
"j c #9C7658",
"k c #9D7658",
"l c #9C7758",
"z c #9D7758",
"x c #9C7659",
"c c #9D7659",
"v c #9C7759",
"b c #9D7759",
/* pixels */
"    ooooooo    ",
"   ohcccvcho   ",
"  ohjchpavcho  ",
"  ohvjphacjho  ",
"  orhccjjjdro  ",
"   oephhhfy+   ",
"   oXXooXXoX   ",
"   orrhrhhro   ",
"   oehpiearo   ",
"   orhppepro   ",
"  ,orhephhrX2  ",
"  ,oerohprro1  ",
" 9,1.eorOeo:76 ",
"   34>%7-<6,   ",
"    &     0    "
};
