/* XPM */
static char *_d0ac0e805e349e7b13520f9f16dab72Rrb2avZ3w5H8XaNy[] = {
/* columns rows colors chars-per-pixel */
"35 32 55 1 ",
"  c None",
". c #140C1C",
"X c #150C1C",
"o c #140D1C",
"O c #150D1C",
"+ c #140C1D",
"@ c #150C1D",
"# c #140D1D",
"$ c #150D1D",
"% c #442434",
"& c #452434",
"* c #442534",
"= c #452534",
"- c #442435",
"; c #452435",
": c #442535",
"> c #4E4A4E",
", c #4F4A4E",
"< c #4E4B4E",
"1 c #4F4B4E",
"2 c #4E4A4F",
"3 c #4F4A4F",
"4 c #4E4B4F",
"5 c #4F4B4F",
"6 c #747060",
"7 c #747160",
"8 c #757160",
"9 c #757061",
"0 c #747161",
"q c #844C30",
"w c #854C30",
"e c #844D30",
"r c #854D30",
"t c #844C31",
"y c #854C31",
"u c #844D31",
"i c #854D31",
"p c #D27C2C",
"a c #D37C2C",
"s c #D27D2C",
"d c #D37D2C",
"f c #D27C2D",
"g c #D37C2D",
"h c #D27D2D",
"j c #D37D2D",
"k c #DAD45E",
"l c #DBD45E",
"z c #DAD55E",
"x c #DBD55E",
"c c #DAD45F",
"v c #DBD45F",
"b c #DAD55F",
"n c #DBD55F",
"m c #DEEED6",
"M c #DEEED7",
/* pixels */
"    o@@o@o@...@oo@++ooo..+oooo@    ",
"    o@.@@ooX.o@oo@@ooo@@oooooo@    ",
"  o@kvkkkkkkkkkkkvkkvvvvpkvppfj@o  ",
"  ookvkkkkkkkkkkkkkkvkvvpnvjjggoo  ",
"++vkMMeewewuwewwwwwwwwiijjppppjjpoo",
"++kvMMweutwweeqwuwwwwwwwjpjpjpffp+o",
"oovvwwww..o.X.X.#oooooooo#@==jjwt.X",
"+okkwwww.X.XoXXo#oooo@@o+@o-=jpwwoX",
"ookkww+o%%==%%%%%%%%%%%%42<@@aadaX@",
"ookktw++%%%%%%%%%%%%%%%%42<@@appj@X",
"@ovkwu+@%%<<>>3331>>33>>43<@ojpwwoo",
".okvwwoo%%2<>>3><1>>>>>3523o@jpwwo@",
"..vkwwoo%=3<33<343<<<<33<<4oofjwwoo",
"+.kkwwoo=%3<33<><<<<33<3<44+@fpwwoo",
"+okkwu++--<<<33><3<,<<3<<<4++pppjo@",
"++kkww++--<<33>>333<3<3<<60+#vvww@@",
"ookkww+@%%<<<1413>3><333366+@vvuy@o",
"ookkwe+@%%33<1>1<3>>353<260.ovkui@o",
"ookkwwo@%%><<<313333<535<3<Xoppwwoo",
"@okkuuoo%%>3<313><>><<3<333@oppwi@o",
"@@kkpp+o%%3<13<4,,33<<22506@ovnwwo@",
"@@ppdpoo33<31434,3<33333306@onvwwoo",
"oopppdXX3>333455<<3<<<3<300ookvwwoo",
"oonkdpXX3333455463<333<<330oovvwi@@",
"oojjap=-###+o@oo@oooooo+o@o=-jawi@o",
"o@jajd%-@o++@o#+@@ooooo+o@@%-jjwi@o",
"@ogappdppppvvvbkvvvvnnkvkkkfjppwwoo",
"@@japppdpppvvvvkvvvvvnvvnknfpppww@@",
"  @ojjwwjguwwwuwwwiwuiiwuwwiiwuo@  ",
"  @ojpwwjjwuiuuiwwuuuiiuuwiiiiioo  ",
"    oo+#@oo@@+o@o@ooo@oo+o@oo@o    ",
"    oo+#ooo@oo@o@@oo@@oooo@o@@@    "
};
